<?xml version="1.0"?>
<svg xmlns="http://www.w3.org/2000/svg" xmlns:xlink="http://www.w3.org/1999/xlink" version="1.1" id="Capa_1" x="0px" y="0px" viewBox="0 0 512 512" style="enable-background:new 0 0 512 512;" xml:space="preserve" width="512px" height="512px" class=""><g><path style="fill:#192A56" d="M512,256c0,8.641-0.428,17.178-1.264,25.6c-0.606,6.071-1.421,12.069-2.435,18.004  c-0.324,1.881-0.669,3.762-1.034,5.632c-0.282,1.463-0.575,2.915-0.888,4.368c-1.567,7.367-3.448,14.618-5.642,21.734  C468.564,435.952,371.158,512,256,512c-75.4,0-143.193-32.601-190.036-84.47c-5.036-5.58-9.843-11.389-14.367-17.398  c-1.797-2.361-3.542-4.754-5.245-7.178c-0.293-0.428-0.596-0.846-0.878-1.275c-0.94-1.348-1.86-2.706-2.769-4.065  c-1.609-2.414-3.176-4.859-4.702-7.335c-6.855-11.097-12.873-22.747-17.993-34.889c-1.567-3.73-3.051-7.492-4.451-11.306  c-1.149-3.124-2.236-6.28-3.25-9.467c-0.491-1.536-0.972-3.072-1.442-4.618c-0.042-0.125-0.073-0.251-0.115-0.376  c-0.209-0.731-0.428-1.473-0.637-2.205c-0.24-0.805-0.46-1.62-0.69-2.424c-0.146-0.491-0.282-0.982-0.418-1.473  c-2.1-7.69-3.845-15.517-5.235-23.479c-0.449-2.612-0.867-5.235-1.233-7.868C0.867,280.357,0,268.278,0,256  C0,114.615,114.615,0,256,0c32.455,0,63.498,6.04,92.076,17.053c7.429,2.863,14.691,6.06,21.755,9.582  c3.197,1.588,6.343,3.239,9.456,4.953c9.989,5.496,19.571,11.63,28.672,18.369C471.071,96.58,512,171.51,512,256z" data-original="#F45367" class="" data-old_color="#F45367"/><circle style="fill:#3880FF" cx="256" cy="192.784" r="184.947" data-original="#FC7385" class="" data-old_color="#FC7385"/><path style="fill:#5B5560;" d="M376.163,376.445l-14.911,16.802c-1.034,0.46-2.048,0.93-3.062,1.421  c-13.134,6.437-24.325,15.956-32.225,27.961c-0.24,0.376-0.491,0.763-0.731,1.139c-0.23,0.366-0.449,0.731-0.679,1.097  c-0.711,1.17-1.39,2.361-2.038,3.574c-0.366,0.679-0.721,1.369-1.055,2.058c-0.69,1.39-1.337,2.811-1.943,4.263  c-0.125,0.293-0.251,0.585-0.366,0.878l-29.017,9.07L20.01,355.391c-1.567-3.73-3.051-7.492-4.451-11.306  c-1.149-3.124-2.236-6.28-3.25-9.467c-0.491-1.536-0.972-3.072-1.442-4.618c-0.042-0.125-0.073-0.251-0.115-0.376  c-0.209-0.731-0.428-1.473-0.637-2.205c-0.24-0.805-0.46-1.62-0.69-2.424c-0.146-0.491-0.282-0.982-0.418-1.473  c1.515-0.679,3.02-1.369,4.493-2.079c-0.982-1.985-1.944-3.992-2.894-6.008c-2.382-5.036-4.66-10.177-6.834-15.391  c-0.449-2.612-0.867-5.235-1.233-7.868c7.011-3.103,14.033-5.945,21.065-8.516c2.069-0.773,4.138-1.515,6.207-2.226  c-0.752-2.09-1.494-4.19-2.215-6.301c-2.623-7.607-5.005-15.391-7.168-23.322c7.858-2.456,15.715-4.608,23.542-6.489  c2.152-0.512,4.295-1.014,6.437-1.484c-0.522-2.163-1.034-4.336-1.526-6.531c-1.745-7.816-3.25-15.768-4.504-23.855  c8.056-1.526,16.06-2.769,24.022-3.73c2.205-0.272,4.409-0.512,6.614-0.742c-0.282-2.205-0.543-4.409-0.784-6.635  c-0.857-7.962-1.463-16.029-1.808-24.21c7.983-0.585,15.903-0.909,23.74-0.993c2.403-0.01,4.796-0.01,7.189,0.01  c-0.031-2.048-0.042-4.096-0.031-6.154c0.031-8.171,0.345-16.447,0.94-24.785c8.171,0.313,16.248,0.888,24.21,1.735  c2.236,0.219,4.462,0.481,6.677,0.752c0.219-2.173,0.46-4.357,0.731-6.552c0.951-7.993,2.194-16.05,3.73-24.148  c8.464,1.275,16.781,2.821,24.952,4.629c1.86,0.408,3.709,0.836,5.559,1.275c0.543-2.445,1.108-4.89,1.703-7.346  c1.849-7.555,3.96-15.13,6.353-22.727c7.952,2.111,15.757,4.462,23.395,7.032c2.152,0.721,4.284,1.463,6.405,2.226  c0.711-2.017,1.442-4.033,2.194-6.05c2.853-7.68,6.008-15.35,9.488-22.998l25.893,15.057L376.163,376.445z" data-original="#5B5560" class=""/><path style="fill:#DCDBDD;" d="M510.736,281.6c-0.794,7.993-1.954,15.872-3.469,23.636c-1.724,8.871-3.908,17.586-6.531,26.102  L447.3,355.046l-0.167,0.073l-85.859,38.097L219.658,74.041l86.016-38.17l0.146-0.063l42.256-18.756l20.919-9.279  c9.341-4.138,20.271,0.073,24.419,9.404l1.682,3.793l12.863,28.985L510.736,281.6z" data-original="#DCDBDD" class=""/><path style="fill:#EB445A" d="M395.097,20.971l-79.882,35.391l-9.394-20.553l63.175-28.035c9.341-4.138,20.271,0.073,24.419,9.404  L395.097,20.971z" data-original="#41ADD1" class="" data-old_color="#41ADD1"/><polygon style="fill:#C12020" points="447.3,355.046 361.273,393.215 219.658,74.04 305.674,35.871 " data-original="#62D6EA" class="active-path" data-old_color="#62D6EA"/><g>
	<path style="fill:#EB445A" d="M507.267,305.236c-1.724,8.871-3.908,17.586-6.531,26.102L447.3,355.046l-0.167,0.073l-8.976-20.125   L507.267,305.236z" data-original="#41ADD1" class="" data-old_color="#41ADD1"/>
	
		<rect x="157.431" y="211.021" transform="matrix(-0.4056 -0.9141 0.9141 -0.4056 269.9902 605.9775)" style="fill:#EB445A" width="349.2" height="8.36" data-original="#41ADD1" class="" data-old_color="#41ADD1"/>
	
		<rect x="119.69" y="227.774" transform="matrix(-0.4056 -0.9141 0.9141 -0.4056 201.6286 595.0285)" style="fill:#EB445A" width="349.2" height="8.36" data-original="#41ADD1" class="" data-old_color="#41ADD1"/>
	<path style="fill:#EB445A" d="M319.028,436.182l-10.25,33.771l-3.312,10.919c-2.967,9.78-13.302,15.297-23.082,12.33   L65.964,427.53c-7.022-7.774-13.573-15.987-19.613-24.576c-12.675-18.045-23.082-37.815-30.793-58.87L319.028,436.182z" data-original="#41ADD1" class="" data-old_color="#41ADD1"/>
</g><path style="fill:#C12020" d="M319.028,436.182l-10.25,33.771c-4.545,5.998-12.497,8.84-20.125,6.531L46.352,402.954  c-12.675-18.045-23.082-37.815-30.793-58.87L319.028,436.182z" data-original="#62D6EA" class="active-path" data-old_color="#62D6EA"/><g>
	<circle style="fill:#DCDBDD;" cx="262.269" cy="470.664" r="5.214" data-original="#DCDBDD" class=""/>
	<circle style="fill:#DCDBDD;" cx="244.475" cy="465.262" r="5.214" data-original="#DCDBDD" class=""/>
	<circle style="fill:#DCDBDD;" cx="226.67" cy="459.86" r="5.214" data-original="#DCDBDD" class=""/>
	<circle style="fill:#DCDBDD;" cx="208.854" cy="454.457" r="5.214" data-original="#DCDBDD" class=""/>
	<circle style="fill:#DCDBDD;" cx="191.049" cy="449.055" r="5.214" data-original="#DCDBDD" class=""/>
	<circle style="fill:#DCDBDD;" cx="173.244" cy="443.643" r="5.214" data-original="#DCDBDD" class=""/>
	<circle style="fill:#DCDBDD;" cx="155.439" cy="438.241" r="5.214" data-original="#DCDBDD" class=""/>
	<circle style="fill:#DCDBDD;" cx="137.634" cy="432.839" r="5.214" data-original="#DCDBDD" class=""/>
	<circle style="fill:#DCDBDD;" cx="119.829" cy="427.436" r="5.214" data-original="#DCDBDD" class=""/>
	<circle style="fill:#DCDBDD;" cx="256.533" cy="457.143" r="5.214" data-original="#DCDBDD" class=""/>
	<circle style="fill:#DCDBDD;" cx="238.728" cy="451.73" r="5.214" data-original="#DCDBDD" class=""/>
	<circle style="fill:#DCDBDD;" cx="220.923" cy="446.328" r="5.214" data-original="#DCDBDD" class=""/>
	<circle style="fill:#DCDBDD;" cx="203.118" cy="440.926" r="5.214" data-original="#DCDBDD" class=""/>
	<circle style="fill:#DCDBDD;" cx="185.313" cy="435.524" r="5.214" data-original="#DCDBDD" class=""/>
	<circle style="fill:#DCDBDD;" cx="167.508" cy="430.122" r="5.214" data-original="#DCDBDD" class=""/>
	<circle style="fill:#DCDBDD;" cx="149.692" cy="424.72" r="5.214" data-original="#DCDBDD" class=""/>
	<circle style="fill:#DCDBDD;" cx="131.887" cy="419.307" r="5.214" data-original="#DCDBDD" class=""/>
	<circle style="fill:#DCDBDD;" cx="114.082" cy="413.905" r="5.214" data-original="#DCDBDD" class=""/>
	<circle style="fill:#DCDBDD;" cx="251.005" cy="443.664" r="5.214" data-original="#DCDBDD" class=""/>
	<circle style="fill:#DCDBDD;" cx="233.2" cy="438.262" r="5.214" data-original="#DCDBDD" class=""/>
	<circle style="fill:#DCDBDD;" cx="215.395" cy="432.849" r="5.214" data-original="#DCDBDD" class=""/>
	<circle style="fill:#DCDBDD;" cx="197.59" cy="427.447" r="5.214" data-original="#DCDBDD" class=""/>
	<circle style="fill:#DCDBDD;" cx="179.785" cy="422.045" r="5.214" data-original="#DCDBDD" class=""/>
	<circle style="fill:#DCDBDD;" cx="161.98" cy="416.643" r="5.214" data-original="#DCDBDD" class=""/>
	<circle style="fill:#DCDBDD;" cx="144.175" cy="411.24" r="5.214" data-original="#DCDBDD" class=""/>
	<circle style="fill:#DCDBDD;" cx="126.37" cy="405.838" r="5.214" data-original="#DCDBDD" class=""/>
	<circle style="fill:#DCDBDD;" cx="245.258" cy="430.132" r="5.214" data-original="#DCDBDD" class=""/>
	<circle style="fill:#DCDBDD;" cx="227.453" cy="424.73" r="5.214" data-original="#DCDBDD" class=""/>
	<circle style="fill:#DCDBDD;" cx="209.648" cy="419.328" r="5.214" data-original="#DCDBDD" class=""/>
	<circle style="fill:#DCDBDD;" cx="191.843" cy="413.926" r="5.214" data-original="#DCDBDD" class=""/>
	<circle style="fill:#DCDBDD;" cx="174.038" cy="408.513" r="5.214" data-original="#DCDBDD" class=""/>
	<circle style="fill:#DCDBDD;" cx="156.233" cy="403.111" r="5.214" data-original="#DCDBDD" class=""/>
	<circle style="fill:#DCDBDD;" cx="138.428" cy="397.709" r="5.214" data-original="#DCDBDD" class=""/>
	<circle style="fill:#DCDBDD;" cx="120.623" cy="392.307" r="5.214" data-original="#DCDBDD" class=""/>
	<circle style="fill:#DCDBDD;" cx="101.93" cy="422.139" r="5.214" data-original="#DCDBDD" class=""/>
	<circle style="fill:#DCDBDD;" cx="84.125" cy="416.726" r="5.214" data-original="#DCDBDD" class=""/>
	<circle style="fill:#DCDBDD;" cx="66.32" cy="411.324" r="5.214" data-original="#DCDBDD" class=""/>
	<path style="fill:#DCDBDD;" d="M51.597,410.133c-1.797-2.361-3.542-4.754-5.245-7.178c-0.293-0.428-0.596-0.846-0.878-1.275   c0.188-0.125,0.376-0.251,0.585-0.355c2.539-1.358,5.695-0.397,7.053,2.142C54.356,405.786,53.656,408.618,51.597,410.133z" data-original="#DCDBDD" class=""/>
	<circle style="fill:#DCDBDD;" cx="96.183" cy="408.607" r="5.214" data-original="#DCDBDD" class=""/>
	<circle style="fill:#DCDBDD;" cx="78.378" cy="403.205" r="5.214" data-original="#DCDBDD" class=""/>
	<circle style="fill:#DCDBDD;" cx="60.575" cy="397.803" r="5.214" data-original="#DCDBDD" class=""/>
	<path style="fill:#DCDBDD;" d="M45.223,396.999c-0.805,0.428-1.672,0.627-2.518,0.616c-1.609-2.414-3.176-4.859-4.702-7.335   c0.46-1.024,1.243-1.912,2.309-2.487c2.539-1.348,5.695-0.397,7.053,2.142C48.724,392.473,47.762,395.64,45.223,396.999z" data-original="#DCDBDD" class=""/>
	<circle style="fill:#DCDBDD;" cx="108.471" cy="400.53" r="5.214" data-original="#DCDBDD" class=""/>
	<circle style="fill:#DCDBDD;" cx="90.666" cy="395.128" r="5.214" data-original="#DCDBDD" class=""/>
	<circle style="fill:#DCDBDD;" cx="72.861" cy="389.726" r="5.214" data-original="#DCDBDD" class=""/>
	<circle style="fill:#DCDBDD;" cx="55.051" cy="384.324" r="5.214" data-original="#DCDBDD" class=""/>
	<circle style="fill:#DCDBDD;" cx="37.245" cy="378.922" r="5.214" data-original="#DCDBDD" class=""/>
	<circle style="fill:#DCDBDD;" cx="102.724" cy="387.009" r="5.214" data-original="#DCDBDD" class=""/>
	<circle style="fill:#DCDBDD;" cx="84.919" cy="381.607" r="5.214" data-original="#DCDBDD" class=""/>
	<circle style="fill:#DCDBDD;" cx="67.114" cy="376.195" r="5.214" data-original="#DCDBDD" class=""/>
	<circle style="fill:#DCDBDD;" cx="49.309" cy="370.792" r="5.214" data-original="#DCDBDD" class=""/>
</g><path style="fill:#353434;" d="M360.876,391.858l-2.685,2.811c-13.134,6.437-24.325,15.956-32.225,27.961  c-0.24,0.376-0.491,0.763-0.731,1.139c-0.23,0.366-0.449,0.731-0.679,1.097c-0.711,1.17-1.39,2.361-2.038,3.574  c-0.366,0.679-0.721,1.369-1.055,2.058c-0.69,1.39-1.337,2.811-1.943,4.263c-0.125,0.293-0.251,0.585-0.366,0.878L9.425,324.995  c-0.146-0.491-0.282-0.982-0.418-1.473c1.515-0.679,3.02-1.369,4.493-2.079c-0.982-1.985-1.944-3.992-2.894-6.008l292.018,103.372  L23.604,283.658c2.069-0.773,4.138-1.515,6.207-2.226c-0.752-2.09-1.494-4.19-2.215-6.301l267.849,129.745L43.969,245.321  c2.152-0.512,4.295-1.014,6.437-1.484c-0.522-2.163-1.034-4.336-1.526-6.531l268.236,170.172L68.399,209.721  c2.205-0.272,4.409-0.512,6.614-0.742c-0.282-2.205-0.543-4.409-0.784-6.635l242.615,192.909L96.162,177.142  c2.403-0.01,4.796-0.01,7.189,0.01c-0.031-2.048-0.042-4.096-0.031-6.154l222.417,219.826L128.47,147.947  c2.236,0.219,4.462,0.481,6.677,0.752c0.219-2.173,0.46-4.357,0.731-6.552l206.785,254.6L164.561,122.629  c1.86,0.408,3.709,0.836,5.559,1.275c0.543-2.445,1.108-4.89,1.703-7.346l177.079,272.53L201.571,100.864  c2.152,0.721,4.284,1.463,6.405,2.226c0.711-2.017,1.442-4.033,2.194-6.05L360.876,391.858z" data-original="#353434" class=""/><g>
	
		<rect x="461.668" y="245.246" transform="matrix(-0.4055 -0.9141 0.9141 -0.4055 390.1822 832.6221)" style="fill:#C4C2C6" width="8.359" height="88.367" data-original="#C4C2C6" class=""/>
	
		<rect x="445.006" y="207.669" transform="matrix(-0.4055 -0.9141 0.9141 -0.4055 401.1112 764.5775)" style="fill:#C4C2C6" width="8.359" height="88.367" data-original="#C4C2C6" class=""/>
	
		<rect x="428.334" y="170.091" transform="matrix(-0.4055 -0.9141 0.9141 -0.4055 412.0248 696.5288)" style="fill:#C4C2C6" width="8.359" height="88.378" data-original="#C4C2C6" class=""/>
	
		<rect x="411.676" y="132.539" transform="matrix(-0.4055 -0.9141 0.9141 -0.4055 422.9388 628.5229)" style="fill:#C4C2C6" width="8.359" height="88.378" data-original="#C4C2C6" class=""/>
	
		<rect x="394.999" y="94.963" transform="matrix(-0.4055 -0.9141 0.9141 -0.4055 433.8463 560.4661)" style="fill:#C4C2C6" width="8.359" height="88.378" data-original="#C4C2C6" class=""/>
</g><g>
	
		<rect x="357.791" y="140.309" transform="matrix(0.9141 -0.4055 0.4055 0.9141 -28.1253 165.661)" style="fill:#5B5560;" width="38.272" height="17.805" data-original="#5B5560" class=""/>
	
		<rect x="373.819" y="177.913" transform="matrix(0.9141 -0.4055 0.4055 0.9141 -41.997 175.3905)" style="fill:#5B5560;" width="38.272" height="17.805" data-original="#5B5560" class=""/>
	
		<rect x="407.258" y="253.147" transform="matrix(0.9141 -0.4055 0.4055 0.9141 -69.6314 195.4131)" style="fill:#5B5560;" width="38.272" height="17.805" data-original="#5B5560" class=""/>
	
		<rect x="423.973" y="290.763" transform="matrix(0.9141 -0.4055 0.4055 0.9141 -83.4491 205.4223)" style="fill:#5B5560;" width="38.272" height="17.805" data-original="#5B5560" class=""/>
</g><g>
	
		<rect x="378.331" y="57.388" transform="matrix(-0.4055 -0.9141 0.9141 -0.4055 444.7668 492.4185)" style="fill:#C4C2C6" width="8.359" height="88.378" data-original="#C4C2C6" class=""/>
	
		<rect x="361.654" y="19.813" transform="matrix(-0.4055 -0.9141 0.9141 -0.4055 455.6743 424.3617)" style="fill:#C4C2C6" width="8.359" height="88.378" data-original="#C4C2C6" class=""/>
</g><rect x="323.66" y="65.425" transform="matrix(0.9141 -0.4055 0.4055 0.9141 -0.692 145.3882)" style="fill:#5B5560;" width="38.272" height="17.805" data-original="#5B5560" class=""/><path style="fill:#C4C2C6" d="M508.301,299.604c-0.324,1.881-0.669,3.762-1.034,5.632c-0.282,1.463-0.575,2.915-0.888,4.368  l-62.934,27.92l7.137,16.071l-7.649,3.396L301.317,37.804l7.638-3.385l7.126,16.071l53.75-23.855l23.207-10.292l3.396,7.638  l-17.147,7.607l-59.81,26.54l120.581,271.757L508.301,299.604z" data-original="#C4C2C6" class=""/></g> </svg>
